<svg width="50" height="50" viewBox="0 0 50 50" fill="none" xmlns="http://www.w3.org/2000/svg">
<path d="M40.3125 20.9167C38.8958 13.7292 32.5833 8.33337 25 8.33337C18.9792 8.33337 13.75 11.75 11.1458 16.75C4.875 17.4167 0 22.7292 0 29.1667C0 36.0625 5.60417 41.6667 12.5 41.6667H39.5833C45.3333 41.6667 50 37 50 31.25C50 25.75 45.7292 21.2917 40.3125 20.9167ZM39.5833 37.5H12.5C7.89583 37.5 4.16667 33.7709 4.16667 29.1667C4.16667 24.8959 7.35417 21.3334 11.5833 20.8959L13.8125 20.6667L14.8542 18.6875C16.8333 14.875 20.7083 12.5 25 12.5C30.4583 12.5 35.1667 16.375 36.2292 21.7292L36.8542 24.8542L40.0417 25.0834C43.2917 25.2917 45.8333 28.0209 45.8333 31.25C45.8333 34.6875 43.0208 37.5 39.5833 37.5ZM16.6667 27.0834H21.9792V33.3334H28.0208V27.0834H33.3333L25 18.75L16.6667 27.0834Z" fill="#1C1C1C"/>
</svg>
