<svg width="50" height="50" viewBox="0 0 50 50" fill="none" xmlns="http://www.w3.org/2000/svg">
<g clip-path="url(#clip0_151_510)">
<path d="M33.9285 37.5V44.6429C33.9285 45.5901 33.5522 46.4985 32.8825 47.1682C32.2127 47.838 31.3043 48.2143 30.3571 48.2143H5.35707C4.40987 48.2143 3.50146 47.838 2.83169 47.1682C2.16192 46.4985 1.78564 45.5901 1.78564 44.6429V5.35713C1.78564 4.40993 2.16192 3.50153 2.83169 2.83175C3.50146 2.16198 4.40987 1.78571 5.35707 1.78571H30.3571C31.3043 1.78571 32.2127 2.16198 32.8825 2.83175C33.5522 3.50153 33.9285 4.40993 33.9285 5.35713V12.5" stroke="#1C1C1C" stroke-width="2" stroke-linecap="round" stroke-linejoin="round"/>
<path d="M23.2144 25H48.2144" stroke="#1C1C1C" stroke-width="2" stroke-linecap="round" stroke-linejoin="round"/>
<path d="M41.0713 17.8571L48.2141 25L41.0713 32.1428" stroke="#1C1C1C" stroke-width="2" stroke-linecap="round" stroke-linejoin="round"/>
</g>
<defs>
<clipPath id="clip0_151_510">
<rect width="50" height="50" fill="white"/>
</clipPath>
</defs>
</svg>
